<svg t="1736307361577" class="icon" viewBox="0 0 1024 1024" version="1.1" xmlns="http://www.w3.org/2000/svg" p-id="1879"
    width="200" height="200">
    <path
        d="M529.408 210.688c-66.816 0-121.088 54.272-121.088 119.552v189.184c0 66.816 55.552 119.552 121.088 119.552 66.816 0 119.552-54.272 119.552-119.552V330.24c0-66.816-54.016-119.552-119.552-119.552z m93.184 307.2c0 51.456-41.728 93.184-93.184 93.184s-94.464-41.728-94.464-93.184v-189.184c0-51.456 43.008-93.184 94.464-93.184s93.184 41.728 93.184 93.184v189.184z"
        fill="#444444" p-id="1880"></path>
    <path
        d="M528.128 289.792c-6.912 0-13.824 5.632-13.824 13.824v66.816c0 6.912 5.632 13.824 13.824 13.824 6.912 0 13.824-5.632 13.824-13.824v-66.816c0-8.192-5.632-13.824-13.824-13.824z"
        fill="#D86E1B" p-id="1881"></path>
    <path
        d="M528.128 864.256l19.456-32 19.456-32-37.632 15.36-37.632-15.36 36.352 64zM523.776 750.08h8.448v8.448h-8.448zM523.776 733.44h8.448v8.448h-8.448zM523.776 716.8h8.448v8.448h-8.448z"
        fill="#444444" p-id="1882"></path>
</svg>